<svg width="35" height="35" viewBox="0 0 35 35" fill="none" xmlns="http://www.w3.org/2000/svg">
<path d="M0 17.5V24.5C0 25.468 0.782031 26.25 1.75 26.25H3.5V15.75H1.75C0.782031 15.75 0 16.532 0 17.5ZM25.375 8.75H19.25V5.25C19.25 4.28203 18.468 3.5 17.5 3.5C16.532 3.5 15.75 4.28203 15.75 5.25V8.75H9.625C7.20781 8.75 5.25 10.7078 5.25 13.125V28C5.25 29.9305 6.81953 31.5 8.75 31.5H26.25C28.1805 31.5 29.75 29.9305 29.75 28V13.125C29.75 10.7078 27.7922 8.75 25.375 8.75ZM14 26.25H10.5V24.5H14V26.25ZM12.25 19.6875C11.0414 19.6875 10.0625 18.7086 10.0625 17.5C10.0625 16.2914 11.0414 15.3125 12.25 15.3125C13.4586 15.3125 14.4375 16.2914 14.4375 17.5C14.4375 18.7086 13.4586 19.6875 12.25 19.6875ZM19.25 26.25H15.75V24.5H19.25V26.25ZM24.5 26.25H21V24.5H24.5V26.25ZM22.75 19.6875C21.5414 19.6875 20.5625 18.7086 20.5625 17.5C20.5625 16.2914 21.5414 15.3125 22.75 15.3125C23.9586 15.3125 24.9375 16.2914 24.9375 17.5C24.9375 18.7086 23.9586 19.6875 22.75 19.6875ZM33.25 15.75H31.5V26.25H33.25C34.218 26.25 35 25.468 35 24.5V17.5C35 16.532 34.218 15.75 33.25 15.75Z" fill="url(#paint0_linear_2_37146)"/>
<defs>
<linearGradient id="paint0_linear_2_37146" x1="17.4625" y1="-0.548193" x2="17.4625" y2="35.7169" gradientUnits="userSpaceOnUse">
<stop offset="0.0065984" stop-color="#BE30FF"/>
<stop offset="0.514418" stop-color="#5D31F8"/>
<stop offset="1" stop-color="#00A3FF"/>
</linearGradient>
</defs>
</svg>
