<svg width="34" height="34" viewBox="0 0 34 34" fill="none" xmlns="http://www.w3.org/2000/svg">
<path d="M17.0387 0H16.9613C7.59382 0 0 7.59606 0 16.9663V17.0437C0 26.4139 7.59382 34.01 16.9613 34.01H17.0387C26.4062 34.01 34 26.4139 34 17.0437V16.9663C34 7.59606 26.4062 0 17.0387 0Z" fill="#5865F2"/>
<path d="M25.5081 9.19751C23.9429 8.47902 22.2657 7.94998 20.5111 7.64733C20.479 7.64137 20.4468 7.65567 20.4313 7.68545C20.2157 8.06913 19.9763 8.57077 19.8095 8.96397C17.9227 8.68158 16.0454 8.68158 14.1966 8.96397C14.0287 8.56123 13.7809 8.06913 13.5641 7.68545C13.5474 7.65686 13.5153 7.64256 13.4843 7.64733C11.7309 7.94998 10.0525 8.47902 8.4873 9.19751C8.47419 9.20347 8.46228 9.213 8.45394 9.22611C5.27109 13.9827 4.39912 18.6226 4.82676 23.2052C4.82914 23.2278 4.84105 23.2493 4.85892 23.2624C6.95898 24.8054 8.99355 25.742 10.99 26.3628C11.0221 26.3723 11.0555 26.3604 11.0757 26.3342C11.5475 25.6896 11.9691 25.0092 12.3301 24.2931C12.3515 24.2514 12.3301 24.2013 12.2872 24.1846C11.6189 23.9309 10.984 23.6222 10.3717 23.2719C10.3229 23.2433 10.3193 23.1742 10.3634 23.1409C10.4921 23.0443 10.6207 22.9443 10.7434 22.843C10.766 22.8239 10.797 22.8203 10.8232 22.8323C14.8411 24.6672 19.1913 24.6672 23.1615 22.8323C23.1877 22.8191 23.2187 22.8239 23.2413 22.8418C23.364 22.9431 23.4926 23.0443 23.6225 23.1409C23.6666 23.1742 23.6642 23.2433 23.6154 23.2719C23.0043 23.6294 22.3682 23.932 21.6987 24.1846C21.6547 24.2013 21.6356 24.2514 21.657 24.2943C22.0263 25.008 22.4468 25.6884 22.9102 26.3342C22.9292 26.3616 22.9638 26.3735 22.9959 26.364C25.0019 25.7432 27.0364 24.8066 29.1365 23.2636C29.1543 23.2505 29.1663 23.229 29.1686 23.2076C29.6809 17.91 28.311 13.3083 25.5391 9.22849C25.532 9.21539 25.5212 9.20466 25.5069 9.1987L25.5081 9.19751ZM12.928 20.4146C11.7178 20.4146 10.722 19.3041 10.722 17.9398C10.722 16.5755 11.6999 15.465 12.928 15.465C14.1561 15.465 15.1543 16.5862 15.1341 17.9398C15.1341 19.3041 14.1561 20.4146 12.928 20.4146ZM21.0864 20.4146C19.8762 20.4146 18.8804 19.3041 18.8804 17.9398C18.8804 16.5755 19.8583 15.465 21.0864 15.465C22.3146 15.465 23.3128 16.5862 23.2925 17.9398C23.2925 19.3041 22.3253 20.4146 21.0864 20.4146Z" fill="white"/>
</svg>
