<svg width="34" height="35" viewBox="0 0 34 35" fill="none" xmlns="http://www.w3.org/2000/svg">
<path d="M17.0387 0H16.9613C7.59383 0 0 7.59606 0 16.9663V17.0437C0 26.4139 7.59383 34.01 16.9613 34.01H17.0387C26.4062 34.01 34 26.4139 34 17.0437V16.9663C34 7.59606 26.4062 0 17.0387 0Z" fill="url(#paint0_linear_2_23361)"/>
<path d="M22.2608 6.91919H11.7402C8.83374 6.91919 6.46924 9.28439 6.46924 12.1917V21.8193C6.46924 24.7267 8.83374 27.0919 11.7402 27.0919H22.2608C25.1673 27.0919 27.5318 24.7267 27.5318 21.8193V12.1917C27.5318 9.28439 25.1673 6.91919 22.2608 6.91919ZM8.32868 12.1917C8.32868 10.3103 9.85935 8.77918 11.7402 8.77918H22.2608C24.1417 8.77918 25.6723 10.3103 25.6723 12.1917V21.8193C25.6723 23.7008 24.1417 25.2319 22.2608 25.2319H11.7402C9.85935 25.2319 8.32868 23.7008 8.32868 21.8193V12.1917Z" fill="white"/>
<path d="M17.0006 21.9086C19.7034 21.9086 21.9035 19.709 21.9035 17.0042C21.9035 14.2994 19.7046 12.0999 17.0006 12.0999C14.2966 12.0999 12.0977 14.2994 12.0977 17.0042C12.0977 19.709 14.2966 21.9086 17.0006 21.9086ZM17.0006 13.961C18.679 13.961 20.0441 15.3265 20.0441 17.0054C20.0441 18.6843 18.679 20.0498 17.0006 20.0498C15.3222 20.0498 13.9571 18.6843 13.9571 17.0054C13.9571 15.3265 15.3222 13.961 17.0006 13.961Z" fill="white"/>
<path d="M22.3574 12.8923C23.0852 12.8923 23.6784 12.3001 23.6784 11.5709C23.6784 10.8417 23.0864 10.2495 22.3574 10.2495C21.6284 10.2495 21.0364 10.8417 21.0364 11.5709C21.0364 12.3001 21.6284 12.8923 22.3574 12.8923Z" fill="white"/>
<defs>
<linearGradient id="paint0_linear_2_23361" x1="4.96724" y1="29.0413" x2="29.0398" y2="4.97697" gradientUnits="userSpaceOnUse">
<stop stop-color="#FAAD4F"/>
<stop offset="0.35" stop-color="#DD2A7B"/>
<stop offset="0.62" stop-color="#9537B0"/>
<stop offset="1" stop-color="#515BD4"/>
</linearGradient>
</defs>
</svg>
