<svg width="26" height="25" viewBox="0 0 26 25" fill="none" xmlns="http://www.w3.org/2000/svg">
<g clip-path="url(#clip0_2_24847)">
<path d="M11.128 4.6875L11.914 3.125L13.4861 2.34375L11.914 1.5625L11.128 0L10.3419 1.5625L8.76976 2.34375L10.3419 3.125L11.128 4.6875ZM4.05337 7.8125L5.36315 5.2085L7.98369 3.90625L5.36315 2.604L4.05337 0L2.74359 2.604L0.123047 3.90625L2.74359 5.2085L4.05337 7.8125ZM21.3468 14.0625L20.037 16.6665L17.4165 17.9688L20.037 19.271L21.3468 21.875L22.6566 19.271L25.2771 17.9688L22.6566 16.6665L21.3468 14.0625ZM24.8163 4.60107L20.6477 0.458008C20.3411 0.152344 19.9388 0 19.5364 0C19.134 0 18.7317 0.152344 18.4246 0.458008L0.583877 18.1895C-0.0302357 18.7998 -0.0302357 19.7891 0.583877 20.3989L4.75248 24.542C5.05953 24.8472 5.4619 24.9995 5.86378 24.9995C6.26614 24.9995 6.66851 24.8472 6.97557 24.542L24.8163 6.81006C25.4304 6.20068 25.4304 5.21094 24.8163 4.60107ZM17.7825 9.93457L15.2813 7.44873L19.5359 3.22021L22.0371 5.70605L17.7825 9.93457Z" fill="#8D31FB"/>
</g>
<defs>
<clipPath id="clip0_2_24847">
<rect width="25.1541" height="25" fill="white" transform="translate(0.123047)"/>
</clipPath>
</defs>
</svg>
