<svg width="34" height="34" viewBox="0 0 34 34" fill="none" xmlns="http://www.w3.org/2000/svg">
<path d="M17.0387 0H16.9613C7.59383 0 0 7.59606 0 16.9663V17.0437C0 26.4139 7.59383 34.01 16.9613 34.01H17.0387C26.4062 34.01 34 26.4139 34 17.0437V16.9663C34 7.59606 26.4062 0 17.0387 0Z" fill="url(#paint0_linear_2_23500)"/>
<path d="M27.1221 17.0044V17.0627C27.0947 21.9302 23.6141 25.9969 19.0102 26.9287C18.6981 26.9906 18.3824 27.0395 18.0608 27.074C17.713 27.1098 17.358 27.13 17.0006 27.13C15.595 27.13 14.2561 26.8429 13.0387 26.3222L8.34189 26.8226C7.54022 26.9084 6.94821 26.0898 7.28055 25.3558L8.5432 22.5593C7.49139 20.9638 6.87793 19.0538 6.87793 17.0044C6.87793 11.4232 11.4199 6.87988 17.0006 6.87988C22.2776 6.87988 26.6242 10.9406 27.0816 16.1024C27.109 16.3979 27.1221 16.7017 27.1221 17.0044Z" fill="white"/>
<path d="M21.8663 14.048C22.3201 13.6763 22.9431 14.2327 22.6239 14.7248L20.4988 18.0039L19.3743 19.7388C19.1349 20.1082 18.6322 20.1964 18.2808 19.9307L16.4166 18.5163L15.2671 17.6453C15.1742 17.575 15.0444 17.5774 14.9538 17.6513L12.1331 19.9533C11.6793 20.3239 11.0575 19.7674 11.3767 19.2753L13.3672 16.2059L14.4917 14.471C14.7311 14.1017 15.2338 14.0135 15.5852 14.2792L17.3946 15.6507L18.5429 16.5205C18.637 16.5908 18.7668 16.5884 18.8574 16.5145L21.8663 14.0469V14.048Z" fill="url(#paint1_linear_2_23500)"/>
<defs>
<linearGradient id="paint0_linear_2_23500" x1="4.96724" y1="29.0413" x2="29.0386" y2="4.97697" gradientUnits="userSpaceOnUse">
<stop stop-color="#0498FA"/>
<stop offset="0.34" stop-color="#5C5EFE"/>
<stop offset="0.73" stop-color="#F44E90"/>
<stop offset="1" stop-color="#FA8679"/>
</linearGradient>
<linearGradient id="paint1_linear_2_23500" x1="12.7811" y1="21.2568" x2="21.2565" y2="12.7839" gradientUnits="userSpaceOnUse">
<stop stop-color="#0498FA"/>
<stop offset="0.34" stop-color="#5C5EFE"/>
<stop offset="0.73" stop-color="#F44E90"/>
<stop offset="1" stop-color="#FA8679"/>
</linearGradient>
</defs>
</svg>
