<svg width="34" height="34" viewBox="0 0 34 34" fill="none" xmlns="http://www.w3.org/2000/svg">
<path d="M16.9613 0H17.0387C26.4002 0 34 7.602 34 16.9663V17.0437C34 26.408 26.4002 34.01 17.0387 34.01H16.9613C7.59976 34.01 0 26.408 0 17.0437V16.9663C0 7.602 7.59976 0 16.9613 0Z" fill="#FFFA00"/>
<path d="M22.3195 13.8933C22.3171 14.1208 22.2933 14.3484 22.2718 14.576C22.2647 14.6511 22.2623 14.7273 22.2611 14.8024C22.2587 14.9323 22.3624 15.0502 22.4922 15.0419C22.5541 15.0383 22.6173 15.0216 22.6768 15.0014C22.8757 14.9311 23.0723 14.856 23.27 14.7809C23.4487 14.7118 23.631 14.6499 23.8156 14.5998C24.0169 14.545 24.2182 14.5045 24.4231 14.5379C24.84 14.6058 25.1116 15.055 24.9591 15.4494C24.9163 15.5602 24.8507 15.6555 24.7721 15.7437C24.6637 15.8641 24.541 15.9665 24.4076 16.0571C24.2504 16.1631 24.092 16.2668 23.9335 16.3717C23.6691 16.5456 23.4046 16.7184 23.1414 16.8947C23.0318 16.9674 22.9258 17.0449 22.8222 17.1247C22.765 17.1688 22.7114 17.22 22.6625 17.2736C22.5696 17.3773 22.5184 17.5096 22.5267 17.6478C22.5351 17.7943 22.5601 17.9373 22.6006 18.0779C22.7257 18.5164 22.9174 18.9239 23.1497 19.3136C23.7727 20.3538 24.6554 21.1664 25.706 21.8301C25.9943 22.0124 26.3028 22.1601 26.6065 22.3162C26.6494 22.3389 26.6911 22.3615 26.7328 22.3865C26.7745 22.4115 26.8114 22.4449 26.8388 22.4854C26.8817 22.5462 26.8877 22.6105 26.8507 22.6773C26.8198 22.7345 26.7745 22.7785 26.7257 22.819C26.6709 22.8643 26.6113 22.9025 26.5494 22.937C26.1944 23.1384 25.8132 23.2885 25.4189 23.3934C25.2283 23.4446 25.0377 23.4982 24.8483 23.5542C24.7316 23.5888 24.622 23.64 24.5136 23.696C24.3314 23.7901 24.2278 23.9415 24.1896 24.1381C24.1682 24.2477 24.1551 24.3597 24.1348 24.4693C24.0848 24.747 23.9847 24.8482 23.7132 24.8959C23.6179 24.9126 23.5202 24.9221 23.4237 24.9281C23.1807 24.9412 22.9377 24.9483 22.6947 24.9614C22.6875 24.9614 22.6804 24.9614 22.6744 24.9614C21.7036 25.0186 20.765 25.3296 19.9323 25.8324C19.8883 25.8587 19.8442 25.8861 19.7989 25.9123C19.4618 26.116 19.1188 26.3102 18.7507 26.4532C18.3397 26.6129 17.9157 26.7082 17.4761 26.7475C17.1057 26.7809 16.7364 26.7761 16.3683 26.7344C15.8168 26.6725 15.2939 26.5116 14.7995 26.259C14.5696 26.1411 14.3481 26.01 14.1289 25.8753C14.117 25.8682 14.1051 25.861 14.092 25.8527C13.2176 25.3201 12.223 24.9972 11.1998 24.9555C11.1926 24.9555 11.1855 24.9555 11.1783 24.9555C10.9639 24.9471 10.7507 24.9388 10.5363 24.9257C10.4112 24.9185 10.2861 24.9019 10.1634 24.8685C10.0074 24.8256 9.89422 24.6886 9.86444 24.5301C9.84776 24.4431 9.83466 24.3561 9.81917 24.2691C9.8156 24.2501 9.81559 24.2298 9.81202 24.2108C9.77628 23.9558 9.65002 23.7687 9.41059 23.6603C9.26408 23.5935 9.114 23.5399 8.95914 23.497C8.69232 23.4232 8.4231 23.3576 8.16223 23.2635C7.93233 23.1813 7.71078 23.0836 7.49756 22.9668C7.43323 22.9322 7.37128 22.8929 7.31172 22.8524C7.27122 22.825 7.23311 22.794 7.19976 22.7595C7.09255 22.6475 7.10327 22.5009 7.22477 22.4056C7.29505 22.3496 7.37724 22.3126 7.45705 22.2733C8.01333 22.0005 8.54103 21.6811 9.0318 21.3022C9.77272 20.7315 10.4005 20.0559 10.8758 19.2421C11.0449 18.9501 11.1855 18.6427 11.301 18.3258C11.3772 18.1161 11.4392 17.9063 11.4547 17.6859C11.4654 17.5239 11.4106 17.363 11.2998 17.245C11.22 17.1604 11.1271 17.0925 11.033 17.0246C10.8924 16.9245 10.7507 16.8256 10.6077 16.7315C10.3004 16.5289 9.9919 16.3299 9.68457 16.1286C9.54997 16.0404 9.42012 15.9451 9.30338 15.8343C9.21881 15.7532 9.14257 15.6663 9.08182 15.565C8.95556 15.3529 8.94603 15.1348 9.04013 14.9108C9.09612 14.7774 9.20095 14.6642 9.33198 14.6034C9.519 14.5176 9.71435 14.5069 9.9109 14.5391C10.1229 14.5736 10.3266 14.6392 10.5279 14.7118C10.734 14.7857 10.9365 14.8667 11.1414 14.9442C11.2367 14.9799 11.3332 15.0157 11.4344 15.0312C11.4582 15.0347 11.4821 15.0419 11.5059 15.0407C11.6238 15.0371 11.7215 14.999 11.7203 14.8405C11.7203 14.7643 11.7179 14.6868 11.7144 14.6106C11.6965 14.2293 11.6738 13.848 11.6643 13.4667C11.6429 12.5587 11.6464 11.6472 11.8835 10.7655C12.0288 10.2257 12.2802 9.72407 12.6197 9.27844C13.3236 8.35262 14.2528 7.76519 15.3641 7.45182C15.9716 7.28024 16.5923 7.22423 17.2212 7.2433C17.8156 7.26117 18.4076 7.36245 18.9699 7.55786C19.6369 7.7914 20.2432 8.1298 20.759 8.60999C21.3451 9.15571 21.7965 9.79318 22.0419 10.5653C22.1527 10.9144 22.223 11.2719 22.2659 11.6341C22.3552 12.3836 22.3302 13.1378 22.323 13.8909L22.3195 13.8933Z" fill="white"/>
<path d="M16.9874 27.267C16.7635 27.267 16.5372 27.2539 16.3132 27.2288C15.7105 27.1609 15.1244 26.9834 14.5741 26.701C14.3287 26.5747 14.0905 26.4341 13.8701 26.2994L13.8344 26.278C13.0101 25.7752 12.0917 25.4904 11.1804 25.4535H11.159C10.9696 25.4451 10.7421 25.4356 10.5086 25.4225C10.3335 25.4117 10.1774 25.3879 10.0333 25.3486C9.70097 25.258 9.44367 24.9733 9.37696 24.6241C9.36386 24.5586 9.35315 24.4919 9.34243 24.4263L9.33052 24.3537C9.32695 24.3322 9.32456 24.3084 9.32218 24.2857C9.30669 24.1761 9.27572 24.1463 9.20783 24.1154C9.08632 24.0605 8.95767 24.0141 8.82664 23.9771C8.7647 23.9593 8.70276 23.9426 8.63963 23.9259C8.42998 23.8699 8.21318 23.8103 7.99519 23.7329C7.7379 23.6411 7.49014 23.5303 7.25905 23.4052C7.18281 23.3635 7.10657 23.317 7.03153 23.2658C6.96125 23.2169 6.89693 23.1645 6.84094 23.1061C6.69085 22.95 6.6158 22.7511 6.62891 22.5449C6.6432 22.3388 6.74445 22.1517 6.9136 22.0159C7.01843 21.9325 7.12325 21.8824 7.20782 21.8407L7.23641 21.8264C7.78078 21.5595 8.28108 21.2509 8.72658 20.9077C9.45916 20.343 10.0214 19.7162 10.4443 18.9906C10.5896 18.7415 10.7206 18.4591 10.8314 18.1541C10.9088 17.942 10.9458 17.7919 10.9553 17.6525C10.9565 17.6263 10.9493 17.6012 10.935 17.5869C10.8862 17.5357 10.8159 17.4833 10.7409 17.4308C10.5908 17.3236 10.4562 17.2307 10.3299 17.1484C10.1417 17.0245 9.95231 16.9018 9.7641 16.7791L9.40794 16.5467C9.22688 16.4276 9.08275 16.3168 8.95649 16.1976C8.82903 16.0773 8.72896 15.9545 8.65034 15.8223C8.44308 15.4767 8.41807 15.0954 8.57768 14.7189C8.68251 14.4699 8.88025 14.2637 9.11968 14.1529C9.38055 14.0326 9.67357 13.998 9.98804 14.0505C10.2525 14.0945 10.4919 14.1744 10.6932 14.2471C10.8314 14.2971 10.9672 14.3495 11.1042 14.402C11.1375 14.4151 11.1709 14.4282 11.2043 14.4401L11.1995 14.3448C11.1852 14.0636 11.1709 13.7716 11.1637 13.4821C11.1423 12.5694 11.1423 11.5983 11.3996 10.6391C11.5592 10.0433 11.8356 9.48568 12.2203 8.98047C12.9636 8.00341 13.975 7.329 15.2257 6.97631C15.8475 6.80115 16.505 6.72728 17.2328 6.74873C17.9011 6.76898 18.5396 6.88456 19.1304 7.09189C19.8975 7.35998 20.5574 7.74962 21.0935 8.24887C21.7903 8.89826 22.2537 9.60841 22.511 10.4175C22.6241 10.7749 22.704 11.155 22.7552 11.578C22.8374 12.2655 22.8278 12.9495 22.8195 13.612L22.8159 13.8979C22.8135 14.0814 22.7992 14.259 22.7838 14.4317C22.8874 14.3924 22.991 14.3531 23.0899 14.315C23.3055 14.2328 23.4997 14.1684 23.6831 14.1184C23.9178 14.054 24.1977 13.9956 24.5015 14.0457C24.8529 14.1029 25.159 14.3162 25.34 14.6307C25.5175 14.9393 25.5473 15.3028 25.4234 15.6269C25.3627 15.7841 25.271 15.9307 25.1423 16.0737C25.0137 16.2167 24.8648 16.3454 24.6861 16.4669C24.5634 16.5503 24.4395 16.6313 24.3156 16.7135L23.9464 16.9566C23.7701 17.0722 23.5926 17.189 23.4175 17.3057C23.3234 17.3689 23.2245 17.4392 23.1256 17.5166C23.0947 17.5405 23.0625 17.5703 23.0315 17.6048C23.0244 17.6131 23.022 17.6179 23.022 17.6191C23.028 17.724 23.0458 17.83 23.078 17.9396C23.184 18.3078 23.346 18.6736 23.5759 19.0573C24.1203 19.9652 24.9029 20.735 25.9702 21.4082C26.1774 21.5393 26.399 21.6513 26.6337 21.7716C26.7004 21.805 26.7671 21.8395 26.8326 21.8741C26.8838 21.9003 26.9338 21.9289 26.9827 21.9575C27.0863 22.0183 27.1745 22.0993 27.2447 22.1994C27.396 22.415 27.4115 22.6819 27.2876 22.9131C27.2126 23.0513 27.1113 23.1443 27.0422 23.2015C26.9517 23.2765 26.8624 23.3301 26.7945 23.3683C26.4145 23.5839 25.9952 23.7531 25.5461 23.8723C25.3782 23.9164 25.2007 23.9664 24.9898 24.0296C24.9053 24.0546 24.8171 24.0975 24.7421 24.1368C24.7099 24.1535 24.6908 24.1666 24.6777 24.2333C24.667 24.2869 24.6599 24.3406 24.6515 24.3954C24.6432 24.4502 24.6349 24.5038 24.6253 24.5574C24.5384 25.04 24.2763 25.3033 23.7975 25.3855C23.6891 25.4046 23.5723 25.4177 23.4508 25.4237C23.3305 25.4308 23.2102 25.4356 23.0887 25.4403C22.966 25.4451 22.8433 25.4499 22.7218 25.457H22.7087C21.8403 25.5095 20.9708 25.7859 20.1882 26.2589L20.0547 26.3388C19.7153 26.5437 19.3436 26.757 18.9291 26.9178C18.4883 27.0894 18.0143 27.1991 17.5199 27.2443C17.3436 27.2598 17.1649 27.2682 16.9863 27.2682L16.9874 27.267ZM10.3466 24.4001C10.4109 24.4144 10.4824 24.4228 10.5658 24.4275C10.7909 24.4406 11.0113 24.4502 11.1971 24.4561H11.2197C12.3001 24.5014 13.3829 24.8362 14.3514 25.426L14.3895 25.4499C14.623 25.5929 14.8219 25.7096 15.0268 25.8145C15.4711 26.0421 15.9404 26.1851 16.424 26.2387C16.7611 26.2768 17.0994 26.2804 17.4318 26.2506C17.8392 26.2137 18.212 26.1279 18.5705 25.9884C18.9136 25.855 19.24 25.6679 19.5425 25.4856L19.676 25.4046C20.5967 24.8482 21.6235 24.5229 22.6468 24.4633H22.667C22.7957 24.4549 22.9231 24.449 23.0506 24.4442C23.1661 24.4395 23.2829 24.4347 23.3984 24.4287C23.4818 24.424 23.5604 24.4156 23.6319 24.4037C23.6366 24.4037 23.6402 24.4025 23.645 24.4013C23.6462 24.3954 23.6474 24.3882 23.6498 24.3799C23.6581 24.3346 23.664 24.2893 23.6712 24.244C23.6819 24.1761 23.6914 24.1082 23.7045 24.0415C23.7736 23.6876 23.9761 23.4147 24.2882 23.2527C24.3978 23.1955 24.5455 23.124 24.7111 23.0751C24.9315 23.0096 25.1173 22.9572 25.2948 22.9107C25.5795 22.8357 25.8487 22.7356 26.0976 22.614C25.8808 22.5032 25.6593 22.3876 25.4425 22.2506C24.2406 21.4916 23.352 20.6146 22.7254 19.5696C22.4502 19.1109 22.2537 18.6677 22.1238 18.2149C22.0726 18.035 22.0417 17.8538 22.0321 17.6751C22.0178 17.4058 22.1107 17.1449 22.2954 16.9399C22.3657 16.8613 22.4419 16.7898 22.5205 16.7302C22.6372 16.6397 22.754 16.5563 22.8671 16.48C23.0446 16.3608 23.2245 16.2429 23.4032 16.1261L23.7724 15.883C23.8928 15.8044 24.0119 15.7258 24.131 15.6447C24.2418 15.5697 24.3311 15.4934 24.405 15.4112C24.4514 15.3588 24.4812 15.3147 24.4979 15.2706C24.5205 15.211 24.4979 15.155 24.4812 15.1276C24.4502 15.074 24.4002 15.037 24.3466 15.0287C24.231 15.0096 24.0869 15.0418 23.9487 15.0799C23.7975 15.1216 23.6343 15.1753 23.4496 15.2468C23.2567 15.3206 23.0506 15.3993 22.8433 15.472C22.7302 15.5113 22.6265 15.5339 22.5241 15.5399C22.3287 15.5506 22.1346 15.4803 21.9916 15.3433C21.8427 15.2003 21.7605 15.0001 21.7641 14.794C21.7653 14.7237 21.7677 14.6295 21.7772 14.5318L21.7855 14.4365C21.8034 14.2459 21.8201 14.0659 21.8225 13.8896L21.826 13.6001C21.8344 12.9411 21.8427 12.318 21.7689 11.6972C21.726 11.3373 21.6593 11.0168 21.5652 10.7201C21.3615 10.0779 20.9863 9.50832 20.4181 8.97809C19.9773 8.56701 19.4496 8.2584 18.804 8.03201C18.3097 7.85924 17.7713 7.76153 17.2054 7.74485C16.5801 7.72459 16.0214 7.78775 15.4985 7.9355C14.4455 8.23219 13.6331 8.77195 13.0148 9.58458C12.7087 9.98613 12.4895 10.4294 12.3633 10.8988C12.1405 11.7293 12.1405 12.6194 12.1608 13.4595C12.1667 13.7359 12.181 14.0207 12.1953 14.2959L12.2096 14.5914C12.2132 14.6748 12.2156 14.7582 12.2168 14.8416C12.2191 15.2479 11.9392 15.5292 11.5199 15.5423C11.4461 15.5423 11.3901 15.5327 11.3591 15.5268C11.2031 15.5029 11.0708 15.4529 10.9648 15.4136C10.8934 15.3862 10.8219 15.3588 10.7504 15.3314C10.6194 15.2813 10.4884 15.2313 10.3573 15.1836C10.2001 15.1264 10.0131 15.0645 9.82843 15.0335C9.67238 15.0085 9.58782 15.0359 9.53779 15.0585C9.52587 15.0645 9.5068 15.0823 9.49608 15.1073C9.45677 15.2003 9.4687 15.2503 9.50562 15.3123C9.53778 15.3659 9.58305 15.4195 9.64261 15.4767C9.7248 15.5542 9.82367 15.6304 9.95351 15.715L10.3073 15.9462C10.4979 16.0701 10.6885 16.194 10.8779 16.3191C11.0149 16.4097 11.159 16.5086 11.3198 16.623C11.4306 16.7028 11.5497 16.7898 11.6593 16.9066C11.863 17.1234 11.969 17.4201 11.9487 17.7228C11.9285 18.0254 11.8403 18.2971 11.7665 18.4997C11.6343 18.8607 11.4794 19.1955 11.3043 19.4958C10.8219 20.3227 10.1596 21.0638 9.33408 21.7001C8.89692 22.0373 8.41211 22.3447 7.89156 22.614C8.03093 22.6819 8.17745 22.7439 8.32992 22.7975C8.51098 22.8619 8.69919 22.9131 8.89931 22.9667C8.96364 22.9846 9.02915 23.0013 9.09348 23.0191C9.27215 23.0692 9.44844 23.1323 9.61639 23.2086C10.0059 23.385 10.2453 23.7079 10.3061 24.1428C10.3085 24.1583 10.3097 24.1737 10.3109 24.188V24.1857L10.3228 24.2631C10.3299 24.3096 10.3383 24.356 10.3466 24.4013V24.4001Z" fill="#1D1D1B"/>
</svg>
