<svg width="34" height="34" viewBox="0 0 34 34" fill="none" xmlns="http://www.w3.org/2000/svg">
<path d="M17.0387 0H16.9613C7.59382 0 0 7.59606 0 16.9663V17.0437C0 26.4139 7.59382 34.01 16.9613 34.01H17.0387C26.4062 34.01 34 26.4139 34 17.0437V16.9663C34 7.59606 26.4062 0 17.0387 0Z" fill="#00B0F2"/>
<path d="M6.43963 16.4255C6.48728 16.4016 6.53494 16.379 6.5814 16.3575C7.38902 15.9834 8.20737 15.6331 9.02452 15.2828C9.0686 15.2828 9.14243 15.2315 9.18412 15.2149C9.24726 15.1875 9.3104 15.1612 9.37353 15.1338L9.73685 14.9777C9.97985 14.8741 10.2216 14.7704 10.4646 14.6668C10.9495 14.4594 11.4343 14.2521 11.9191 14.0436C12.8887 13.6289 13.8595 13.2131 14.8292 12.7984C15.7988 12.3838 16.7696 11.9679 17.7392 11.5533C18.7089 11.1386 19.6797 10.7228 20.6493 10.3081C21.6189 9.89347 22.5897 9.47762 23.5594 9.06297C23.775 8.97003 24.0084 8.83181 24.2395 8.7913C24.4337 8.75674 24.6231 8.69002 24.8184 8.65308C25.1889 8.58278 25.5975 8.55418 25.9524 8.70789C26.0751 8.76151 26.1883 8.83658 26.2824 8.93071C26.7327 9.37634 26.6695 10.1079 26.5742 10.7347C25.9108 15.1029 25.2473 19.4722 24.5826 23.8404C24.4921 24.4397 24.3682 25.0975 23.8953 25.4764C23.495 25.7969 22.9256 25.8326 22.4313 25.6968C21.937 25.5598 21.501 25.2726 21.0734 24.9902C19.2997 23.8154 17.5248 22.6405 15.7511 21.4657C15.3295 21.1868 14.8601 20.8222 14.8649 20.3158C14.8673 20.0108 15.0495 19.7391 15.2354 19.4972C16.7767 17.4859 19.0007 16.1038 20.6552 14.1854C20.8887 13.9149 21.0722 13.4264 20.7517 13.2703C20.5612 13.1773 20.342 13.3036 20.168 13.424C17.981 14.9432 15.7952 16.4636 13.6082 17.9828C12.8947 18.4785 12.1466 18.9885 11.2866 19.11C10.5171 19.2196 9.74281 19.0051 8.99832 18.7859C8.37414 18.6024 7.75113 18.4141 7.13052 18.2199C6.80056 18.1174 6.45988 18.0066 6.20497 17.7743C5.95005 17.5419 5.80356 17.1511 5.95722 16.8413C6.05371 16.6471 6.24073 16.5244 6.43727 16.4243L6.43963 16.4255Z" fill="#FEFFFC"/>
</svg>
