<svg width="34" height="34" viewBox="0 0 34 34" fill="none" xmlns="http://www.w3.org/2000/svg">
<path d="M17.0387 0H16.9613C7.59383 0 0 7.59606 0 16.9663V17.0437C0 26.4139 7.59383 34.01 16.9613 34.01H17.0387C26.4062 34.01 34 26.4139 34 17.0437V16.9663C34 7.59606 26.4062 0 17.0387 0Z" fill="black"/>
<path d="M25.6199 13.5072V16.7184C25.0588 16.6636 24.3298 16.5361 23.5234 16.2406C22.4704 15.8546 21.6866 15.3267 21.1732 14.918V21.4083L21.1601 21.3881C21.1684 21.5167 21.1732 21.6478 21.1732 21.7801C21.1732 25.0032 18.5514 27.6269 15.3281 27.6269C12.1047 27.6269 9.48291 25.0032 9.48291 21.7801C9.48291 18.557 12.1047 15.932 15.3281 15.932C15.6437 15.932 15.9534 15.957 16.256 16.0059V19.1706C15.9653 19.067 15.6532 19.0109 15.3281 19.0109C13.8021 19.0109 12.5597 20.2525 12.5597 21.7801C12.5597 23.3076 13.8021 24.5492 15.3281 24.5492C16.854 24.5492 18.0964 23.3064 18.0964 21.7801C18.0964 21.7229 18.0952 21.6657 18.0916 21.6085V8.99609H21.2995C21.3114 9.26776 21.3221 9.54182 21.334 9.81349C21.3555 10.3485 21.546 10.862 21.8784 11.2827C22.2679 11.7771 22.8432 12.3515 23.6509 12.8102C24.4073 13.2392 25.1172 13.4226 25.6199 13.5096V13.5072Z" fill="#FF004F"/>
<path d="M24.5169 10.9003V14.1114C23.9558 14.0566 23.2268 13.9291 22.4204 13.6336C21.3674 13.2476 20.5836 12.7197 20.0702 12.311V18.8013L20.0571 18.7811C20.0654 18.9098 20.0702 19.0408 20.0702 19.1731C20.0702 22.3962 17.4484 25.02 14.225 25.02C11.0017 25.02 8.37988 22.3962 8.37988 19.1731C8.37988 15.95 11.0017 13.325 14.225 13.325C14.5407 13.325 14.8504 13.3501 15.153 13.3989V16.5636C14.8623 16.46 14.5502 16.404 14.225 16.404C12.6991 16.404 11.4567 17.6455 11.4567 19.1731C11.4567 20.7006 12.6991 21.9422 14.225 21.9422C15.7509 21.9422 16.9933 20.6994 16.9933 19.1731C16.9933 19.1159 16.9921 19.0587 16.9886 19.0015V6.38672H20.1964C20.2083 6.65839 20.2191 6.93244 20.231 7.20411C20.2524 7.73911 20.443 8.25266 20.7754 8.67328C21.1649 9.16776 21.7402 9.74208 22.5478 10.2008C23.3042 10.6286 24.0142 10.8133 24.5169 10.9003Z" fill="#00F7EF"/>
<path d="M25.2185 12.3041V15.5153C24.6575 15.4605 23.9285 15.333 23.122 15.0375C22.069 14.6514 21.2852 14.1236 20.7718 13.7149V20.2052L20.7587 20.1849C20.7671 20.3136 20.7718 20.4447 20.7718 20.577C20.7718 23.8001 18.15 26.4238 14.9267 26.4238C11.7033 26.4238 9.08154 23.8001 9.08154 20.577C9.08154 17.3539 11.7033 14.7289 14.9267 14.7289C15.2424 14.7289 15.5521 14.7539 15.8546 14.8028V17.9675C15.564 17.8638 15.2519 17.8078 14.9267 17.8078C13.4008 17.8078 12.1584 19.0494 12.1584 20.577C12.1584 22.1045 13.4008 23.3461 14.9267 23.3461C16.4526 23.3461 17.695 22.1033 17.695 20.577C17.695 20.5198 17.6938 20.4626 17.6902 20.4054V7.79297H20.8981C20.91 8.06464 20.9207 8.33869 20.9326 8.61036C20.9541 9.14536 21.1447 9.65891 21.477 10.0795C21.8665 10.574 22.4419 11.1483 23.2495 11.6071C24.0059 12.0348 24.7158 12.2195 25.2185 12.3065V12.3041Z" fill="white"/>
</svg>
