<svg xmlns="http://www.w3.org/2000/svg" width="25" height="25" viewBox="0 0 25 25" fill="none">
<g clipPath="url(#clip0_978_22876)">
<path d="M16.5864 4.1665H8.29319C3.71297 4.1665 0 7.89745 0 12.4998C0 17.1022 3.71297 20.8332 8.29319 20.8332H16.5864C21.1666 20.8332 24.8796 17.1022 24.8796 12.4998C24.8796 7.89745 21.1666 4.1665 16.5864 4.1665ZM2.7644 12.4998C2.7644 9.42948 5.23719 6.94428 8.29319 6.94428C11.3488 6.94428 13.822 9.42905 13.822 12.4998C13.822 15.5702 11.3492 18.0554 8.29319 18.0554C5.23763 18.0554 2.7644 15.5706 2.7644 12.4998ZM16.5864 18.0554H14.474C17.291 14.8932 17.2918 10.1075 14.474 6.94428H16.5864C19.642 6.94428 22.1152 9.42905 22.1152 12.4998C22.1152 15.5701 19.6424 18.0554 16.5864 18.0554Z" fill="white"/>
</g>
<defs>
<clipPath id="clip0_978_22876">
<rect width="24.8796" height="25" fill="white"/>
</clipPath>
</defs>
</svg>

