<svg width="33" height="33" viewBox="0 0 33 33" fill="none" xmlns="http://www.w3.org/2000/svg">
<path d="M16.5376 0H16.4624C7.37048 0 0 7.37242 0 16.4668V16.5419C0 25.6363 7.37048 33.0087 16.4624 33.0087H16.5376C25.6295 33.0087 33 25.6363 33 16.5419V16.4668C33 7.37242 25.6295 0 16.5376 0Z" fill="#00E510"/>
<path d="M19.7158 21.3319C15.4924 21.3319 12.0563 17.8938 12.0552 13.6692C12.0563 12.5983 12.9281 11.7275 13.9964 11.7275C14.1062 11.7275 14.2149 11.7368 14.3189 11.7553C14.5478 11.7935 14.7652 11.8709 14.9652 11.9877C14.9941 12.0051 15.0138 12.0328 15.0184 12.0652L15.4647 14.8789C15.4704 14.9124 15.46 14.9448 15.4381 14.9691C15.1918 15.242 14.8773 15.4386 14.527 15.5369L14.3582 15.5843L14.4218 15.7474C14.9976 17.2138 16.1699 18.3852 17.6371 18.9635L17.8001 19.0282L17.8475 18.8594C17.9458 18.509 18.1423 18.1944 18.4152 17.9481C18.4348 17.9296 18.4614 17.9204 18.488 17.9204C18.4938 17.9204 18.4996 17.9204 18.5065 17.9215L21.3194 18.3679C21.3529 18.3737 21.3807 18.3922 21.398 18.4211C21.5136 18.6212 21.5911 18.8397 21.6304 19.0687C21.6489 19.1705 21.657 19.278 21.657 19.3902C21.657 20.4599 20.7864 21.3307 19.7158 21.3319Z" fill="#FDFDFD"/>
<path d="M27.2054 15.5773C26.9776 13.0031 25.7983 10.615 23.8849 8.85369C21.9599 7.082 19.4626 6.10596 16.8509 6.10596C11.1187 6.10596 6.45477 10.7711 6.45477 16.5048C6.45477 18.4291 6.98544 20.3038 7.99013 21.9367L5.74951 26.8979L12.9234 26.1334C14.1709 26.6446 15.4912 26.9036 16.8497 26.9036C17.207 26.9036 17.5735 26.8851 17.9411 26.847C18.2648 26.8123 18.592 26.7614 18.9135 26.6966C23.7138 25.7264 27.2181 21.4648 27.2458 16.5603V16.5048C27.2458 16.1926 27.2319 15.8803 27.2042 15.5773H27.2054ZM13.1998 23.9558L9.23069 24.3791L10.4157 21.7528L10.1787 21.4348C10.1614 21.4116 10.144 21.3885 10.1244 21.3619C9.09542 19.9406 8.55202 18.2615 8.55202 16.506C8.55202 11.9287 12.2748 8.20492 16.8509 8.20492C21.1379 8.20492 24.7717 11.5505 25.122 15.8213C25.1405 16.0503 25.1509 16.2804 25.1509 16.5071C25.1509 16.5719 25.1497 16.6355 25.1486 16.7037C25.0607 20.5327 22.3865 23.7847 18.6452 24.6127C18.3596 24.6763 18.0671 24.7249 17.7758 24.7561C17.4729 24.7908 17.1619 24.8081 16.8532 24.8081C15.7537 24.8081 14.6854 24.5954 13.6761 24.1744C13.5639 24.1293 13.4541 24.0807 13.3512 24.031L13.2009 23.9581L13.1998 23.9558Z" fill="#FDFDFD"/>
</svg>
