<svg width="34" height="34" viewBox="0 0 34 34" fill="none" xmlns="http://www.w3.org/2000/svg">
<path d="M34 17.005C34 7.6134 26.3889 0 17 0C7.61117 0 0 7.6134 0 17.005C0 26.3966 7.61117 34.01 17 34.01C26.3889 34.01 34 26.3966 34 17.005Z" fill="#FF0209"/>
<path d="M24.2166 24.5364C23.7101 24.5914 23.1916 24.6009 22.6947 24.5997C18.8183 24.5962 14.9419 24.5926 11.0667 24.5902C9.84701 24.5902 8.51865 24.5508 7.57613 23.7752C6.51415 22.8994 6.29316 21.3806 6.20715 20.0064C6.08769 18.1232 6.07813 16.2341 6.17609 14.3497C6.22984 13.3149 6.32421 12.255 6.76979 11.3181C7.08993 10.6454 7.62391 10.0408 8.30721 9.72291C9.1016 9.35367 9.93303 9.41939 10.7883 9.4182C12.8358 9.41581 14.8834 9.41461 16.9309 9.41222C19.0596 9.40984 21.1895 9.40864 23.3182 9.40625C24.3241 9.40625 25.404 9.42656 26.2247 10.0085C27.2843 10.7589 27.5721 12.1868 27.7047 13.4786C27.9496 15.8577 27.9532 18.2619 27.7143 20.641C27.6151 21.622 27.4503 22.6592 26.804 23.4036C26.1637 24.1421 25.214 24.4265 24.2178 24.5352L24.2166 24.5364Z" fill="white"/>
<path d="M20.4669 17.0047L14.6899 13.6685V20.3409L20.4669 17.0047Z" fill="#FF0209"/>
</svg>
